<svg xmlns="http://www.w3.org/2000/svg" viewBox="0 0 1600 900" preserveAspectRatio="xMidYMid slice">
  <defs>
    <linearGradient id="sky" x1="0" y1="0" x2="0" y2="1"><stop stop-color="#7fb6dc"/><stop offset=".55" stop-color="#e2eef0"/><stop offset="1" stop-color="#a7c47f"/></linearGradient>
    <linearGradient id="road" x1="0" y1="0" x2="0" y2="1"><stop stop-color="#454b4d"/><stop offset="1" stop-color="#181b1c"/></linearGradient>
  </defs>
  <rect width="1600" height="900" fill="url(#sky)"/>
  <path d="M0 545c300-82 470-54 700-82 270-33 500-15 900 62v375H0z" fill="#6e9c63" opacity=".55"/>
  <path d="M0 610c320-78 660-58 1020-12 214 28 372 20 580-18v320H0z" fill="#97b96d"/>
  <path d="M1070 497c90-76 182-77 292 0-126 32-210 35-292 0z" fill="#597c52" opacity=".68"/>
  <path d="M-40 654 1660 580v320H-40z" fill="url(#road)"/>
  <path d="M748 634 852 630l96 270H670z" fill="#f1ead0" opacity=".72"/>
</svg>
